<svg width="40" height="40" viewBox="0 0 40 40" fill="none" xmlns="http://www.w3.org/2000/svg">
<circle cx="20" cy="20" r="20" fill="#2F89CE"/>
<path d="M8.36824 20.6399L13.1962 22.4088L15.0783 28.3589C15.1602 28.761 15.6511 28.8414 15.9785 28.6002L18.6789 26.4292C18.9243 26.1879 19.3335 26.1879 19.6608 26.4292L24.4888 29.8867C24.8161 30.1279 25.3071 29.9671 25.3889 29.565L28.9895 12.6796C29.0713 12.2775 28.6622 11.8755 28.253 12.0363L8.36824 19.5946C7.87725 19.7554 7.87725 20.479 8.36824 20.6399ZM14.8328 21.5243L24.3251 15.8154C24.4888 15.735 24.6525 15.9763 24.4888 16.0567L16.7149 23.2129C16.4694 23.4541 16.2239 23.7757 16.2239 24.1778L15.9785 26.1075C15.9785 26.3488 15.5693 26.4292 15.4875 26.1075L14.5055 22.5696C14.26 22.1676 14.4237 21.6851 14.8328 21.5243Z" fill="white"/>
</svg>
