<svg width="40" height="40" viewBox="0 0 40 40" fill="none" xmlns="http://www.w3.org/2000/svg">
<circle cx="20" cy="20" r="20" fill="#48C95F"/>
<path d="M27.9268 13.0625C25.9512 11.0937 23.3171 10 20.5366 10C14.7561 10 10.0732 14.6667 10.0732 20.4271C10.0732 22.25 10.5854 24.0729 11.4634 25.6042L10 31L15.561 29.5417C17.0976 30.3438 18.7805 30.7812 20.5366 30.7812C26.3171 30.7812 31 26.1146 31 20.3542C30.9268 17.6563 29.9024 15.0312 27.9268 13.0625ZM25.5854 24.1458C25.3659 24.7292 24.3415 25.3125 23.8293 25.3854C23.3902 25.4583 22.8049 25.4583 22.2195 25.3125C21.8537 25.1667 21.3415 25.0208 20.7561 24.7292C18.122 23.6354 16.439 21.0104 16.2927 20.7917C16.1463 20.6458 15.1951 19.4062 15.1951 18.0937C15.1951 16.7812 15.8537 16.1979 16.0732 15.9062C16.2927 15.6146 16.5854 15.6146 16.8049 15.6146C16.9512 15.6146 17.1707 15.6146 17.3171 15.6146C17.4634 15.6146 17.6829 15.5417 17.9024 16.0521C18.122 16.5625 18.6341 17.875 18.7073 17.9479C18.7805 18.0938 18.7805 18.2396 18.7073 18.3854C18.6341 18.5312 18.561 18.6771 18.4146 18.8229C18.2683 18.9687 18.1219 19.1875 18.0488 19.2604C17.9024 19.4062 17.7561 19.5521 17.9024 19.7708C18.0488 20.0625 18.561 20.8646 19.3659 21.5937C20.3902 22.4687 21.1951 22.7604 21.4878 22.9063C21.7805 23.0521 21.9268 22.9792 22.0732 22.8333C22.2195 22.6875 22.7317 22.1042 22.878 21.8125C23.0244 21.5208 23.2439 21.5938 23.4634 21.6667C23.6829 21.7396 25 22.3958 25.2195 22.5417C25.5122 22.6875 25.6585 22.7604 25.7317 22.8333C25.8049 23.0521 25.8049 23.5625 25.5854 24.1458Z" fill="white"/>
</svg>
