<svg width="79" height="79" viewBox="0 0 79 79" fill="none" xmlns="http://www.w3.org/2000/svg">
<g clip-path="url(#clip0_1100_4531)">
<path d="M49.1616 57.2054C48.5177 57.2054 47.1379 55.5859 46.356 54.753C45.4822 53.8738 46.77 52.5781 47.6438 53.4111L49.2076 54.9843L54.2669 49.8943C55.0948 49.0151 56.4286 50.3108 55.5547 51.1899L49.8515 56.9741C49.6676 57.1129 49.4376 57.2054 49.1616 57.2054ZM50.9554 66.5988C39.3191 66.5988 33.4319 52.3931 41.6647 44.0639C46.77 38.9276 55.0948 38.9276 60.246 44.0639C64.7994 48.6912 65.0293 55.1694 62.3157 59.9818L63.7415 61.37C63.9715 61.37 64.2474 61.4163 64.4774 61.6014L73.4461 69.5603L66.961 76.0385L59.0502 67.0616C58.8202 66.8302 58.7742 66.5526 58.8202 66.2749C58.3603 65.8585 57.9004 65.3032 57.4864 64.8867C55.6007 65.951 53.393 66.5988 50.9554 66.5988ZM61.2579 61.5551C60.614 62.388 59.8781 63.1284 59.0502 63.8225L60.062 64.7942L62.2697 62.6194C61.9018 62.2955 61.5798 61.9253 61.2579 61.5551ZM50.9554 62.6194C42.8145 62.6194 38.7211 52.6707 44.4703 46.8866C48.0578 43.2773 53.8529 43.2773 57.4404 46.8866C63.1896 52.6707 59.0502 62.6194 50.9554 62.6194ZM70.5945 79C69.3987 79 68.8928 78.2596 68.2029 77.4267L74.8259 70.7634L75.6078 71.4575C78.2754 73.8637 73.2621 79 70.5945 79ZM39.917 13.57C43.2745 14.5418 43.2745 20.3259 39.779 21.1588C38.9971 28.2386 33.6619 33.745 27.2688 33.745C20.8297 33.745 15.5405 28.2386 14.7126 21.1588C11.3091 20.2333 11.1711 14.7269 14.6206 13.57C14.7586 8.43373 15.3105 10.8862 11.999 6.95299C11.7231 6.62908 11.7231 6.21263 11.953 5.88872C14.5747 2.64961 19.8639 0.197141 24.6012 0.012049C28.0967 -0.12677 30.9943 0.937509 33.11 3.01979C34.5817 3.15861 39.917 4.31544 39.917 11.6266V13.57ZM16.3224 15.0508L16.2764 19.2616C16.2764 26.3414 21.1977 32.0792 27.2688 32.0792C33.2939 32.0792 38.2612 26.3414 38.2612 19.2616V16.2539C35.1797 15.8374 32.1901 11.7191 30.9483 9.82192C23.2674 16.3464 18.898 9.12782 16.3224 15.0508ZM27.2688 27.8221C25.1531 27.8221 22.3015 26.2951 23.4054 25.1383C23.7273 24.8144 24.2332 24.8144 24.5552 25.1383C25.981 26.4802 28.5566 26.5265 29.9824 25.1383C30.7643 24.3979 31.9141 25.601 31.1322 26.3414C30.0744 27.3594 28.6946 27.8221 27.2688 27.8221ZM33.4779 19.7243C33.3399 19.7243 31.7302 19.2153 30.7643 19.6318C29.7524 20.0945 29.0625 18.5675 30.0744 18.1048C31.2242 17.5958 34.9957 17.5958 34.2598 19.2153C34.1218 19.5392 33.7999 19.7243 33.4779 19.7243ZM24.1413 19.7243C23.9573 19.7243 22.3475 19.2153 21.3817 19.6318C20.9677 19.8632 20.5078 19.6318 20.2778 19.2153C19.4039 17.2719 25.797 17.2719 24.8772 19.2153C24.7392 19.5392 24.4172 19.7243 24.1413 19.7243ZM39.0891 62.0178H32.604L30.3504 52.393C30.7183 52.1154 31.0403 51.7915 31.2702 51.375C31.7302 51.9303 32.834 53.8738 33.7079 52.6707L38.0312 46.3776C35.2716 51.5139 35.9615 57.5756 39.0891 62.0178ZM39.825 43.7863L43.5964 38.3723C44.3323 38.7888 45.0222 39.2052 45.6661 39.668C43.4125 40.5472 41.4807 41.8891 39.825 43.7863ZM28.5106 45.1282L38.9971 36.4751C40.009 36.7528 41.0668 37.1692 42.1246 37.632L32.926 50.7735L28.5106 45.1282ZM30.1204 49.9406C29.6605 51.4676 28.2347 51.5139 26.9469 51.4676C25.935 51.4213 24.8312 51.19 24.5092 49.9406L27.3608 46.3776L30.1204 49.9406ZM23.0834 49.0614L21.7496 50.7735L12.183 37.5857C13.3788 37.0767 14.5746 36.6602 15.7705 36.3826L26.165 45.1282L23.0834 49.0614ZM23.4054 51.375C23.7273 51.884 24.1413 52.3005 24.7392 52.6244L22.5315 62.0178H13.6088V53.0871C13.6088 51.9766 11.953 51.9766 11.953 53.0871V55.6784H3.99619L4.04218 46.5626C4.04218 43.0922 7.07774 40.2233 10.7112 38.3261L20.9677 52.6707C21.8416 53.8738 22.9454 51.9303 23.4054 51.375ZM17.8402 35.9661L20.3698 35.8273V33.0972C24.6472 35.8273 29.8904 35.8273 34.1678 33.0972V35.7811C35.1337 35.8273 35.8696 35.8273 36.9274 36.0124L27.3608 43.9251L17.8402 35.9661ZM30.9483 62.0178H24.1413L26.3949 53.1334L28.6946 53.0871L30.9483 62.0178ZM11.953 62.0178H4.77807C4.31814 62.0178 3.9502 61.6476 3.9502 61.1849L3.99619 57.3905H11.953V62.0178Z" fill="#5184C4"/>
<circle cx="50.6921" cy="53.3249" r="8.55833" fill="white"/>
<path d="M53.6869 49L49.5631 54.5232L47.125 52.0482L46 53.1911L49.7494 57L55 50.1429L53.6869 49Z" fill="#5184C4"/>
<path fill-rule="evenodd" clip-rule="evenodd" d="M52.7302 49.4462C53.2046 48.8108 54.1191 48.7129 54.7173 49.2335C55.2601 49.706 55.3421 50.519 54.9046 51.0904L49.7971 57.7607L46.1978 54.1044C45.6991 53.5977 45.6991 52.7845 46.1978 52.2778C46.7077 51.7598 47.543 51.7596 48.0531 52.2774L49.5112 53.7576L52.7302 49.4462ZM53.7656 49.7309L49.6159 55.2888L47.1256 52.7608L46.702 53.1911L49.7026 56.2393L54.318 50.2117L53.7656 49.7309Z" fill="#5184C4"/>
<path d="M52.381 24.7218C52.9789 25.0457 55.4165 26.4802 55.8765 26.4802C56.4744 26.4802 56.8883 25.9712 56.7963 25.3696L56.1984 21.9917L58.6821 19.5855C59.234 19.0303 58.912 18.1048 58.1301 18.0122L54.7266 17.5032L53.2549 14.403C52.8869 13.7089 51.921 13.7089 51.5531 14.403L50.0813 17.5032L46.6778 18.0122C45.8959 18.1048 45.62 19.0303 46.1259 19.5855L48.6555 21.9917L48.0116 25.3696C47.8736 26.1563 48.7015 26.7116 49.3454 26.3414L52.381 24.7218Z" fill="url(#paint0_linear_1100_4531)"/>
<path d="M60.5678 12.3669C61.1657 12.6446 63.6034 14.1253 64.0633 14.1253C64.6152 14.1253 65.0751 13.6163 64.9832 13.0148L64.3392 9.59057L66.8229 7.23065C67.4208 6.67537 67.0988 5.70364 66.317 5.61109L62.9135 5.14836L61.4417 2.04807C61.0737 1.35398 60.1079 1.30771 59.7399 2.04807L58.2681 5.14836L54.8646 5.61109C54.0827 5.70364 53.7608 6.67537 54.3127 7.23065L56.7963 9.59057L56.1984 13.0148C56.0604 13.8014 56.8883 14.3567 57.5322 13.9865L60.5678 12.3669Z" fill="url(#paint1_linear_1100_4531)"/>
<path d="M68.7546 24.7218C69.3065 25.0457 71.7902 26.4802 72.2501 26.4802C72.802 26.4802 73.2619 25.9712 73.17 25.3696L72.5261 21.9917L75.0097 19.5855C75.5616 19.0303 75.2857 18.1048 74.5038 18.0122L71.1003 17.5032L69.5825 14.403C69.2605 13.7089 68.2947 13.7089 67.9267 14.403L66.4549 17.5032L63.0514 18.0122C62.2695 18.1048 61.9476 19.0303 62.4995 19.5855L64.9832 21.9917L64.3852 25.3696C64.2473 26.1563 65.0751 26.7116 65.719 26.3414L68.7546 24.7218Z" fill="url(#paint2_linear_1100_4531)"/>
</g>
<defs>
<linearGradient id="paint0_linear_1100_4531" x1="18.0485" y1="0.379502" x2="62.6819" y2="78.3843" gradientUnits="userSpaceOnUse">
<stop stop-color="#C4AA6C"/>
<stop offset="1" stop-color="#C4AA6C"/>
</linearGradient>
<linearGradient id="paint1_linear_1100_4531" x1="18.0485" y1="0.379502" x2="62.6819" y2="78.3843" gradientUnits="userSpaceOnUse">
<stop stop-color="#C4AA6C"/>
<stop offset="1" stop-color="#C4AA6C"/>
</linearGradient>
<linearGradient id="paint2_linear_1100_4531" x1="18.0485" y1="0.379502" x2="62.6819" y2="78.3843" gradientUnits="userSpaceOnUse">
<stop stop-color="#C4AA6C"/>
<stop offset="1" stop-color="#C4AA6C"/>
</linearGradient>
<clipPath id="clip0_1100_4531">
<rect width="79" height="79" fill="white"/>
</clipPath>
</defs>
</svg>
