<svg width="80" height="80" viewBox="0 0 80 80" fill="none" xmlns="http://www.w3.org/2000/svg">
<g clip-path="url(#clip0_1100_4553)">
<path d="M15.9549 73.8484H34.5622C34.8782 73.8484 35.1452 74.1114 35.1452 74.4226V79.4257C35.1452 79.737 34.8782 80 34.5622 80H15.9549C15.8004 79.9997 15.6522 79.9392 15.543 79.8315C15.4337 79.7238 15.3723 79.5779 15.3721 79.4257V74.4226C15.3721 74.1113 15.639 73.8484 15.9549 73.8484ZM8.54306 51.5501C9.83862 55.496 10.4292 56.1223 12.6204 58.4472C13.0185 58.8681 13.4141 59.2913 13.8072 59.7168C16.8603 63.028 18.8554 65.7137 18.5589 72.1819H32.0178C31.2589 67.9737 30.9388 65.2922 30.9388 60.6389C30.9388 57.7601 30.7611 54.7926 28.6397 52.919C25.0456 49.7445 23.7638 48.5434 20.3677 44.9131C18.8605 43.302 17.1968 42.9255 15.9175 43.9064C15.3142 44.3691 14.9987 44.9276 14.953 45.6139C14.7575 48.5519 19.266 53.0556 21.4327 55.22C21.7922 55.5792 22.1026 55.8893 22.353 56.1507C22.4293 56.2302 22.4889 56.3238 22.5284 56.4261C22.5679 56.5284 22.5866 56.6373 22.5834 56.7467C22.5802 56.8561 22.5551 56.9638 22.5096 57.0636C22.4641 57.1635 22.3991 57.2535 22.3183 57.3286C22.2376 57.4037 22.1425 57.4624 22.0387 57.5014C21.9349 57.5403 21.8243 57.5587 21.7133 57.5555C21.6022 57.5524 21.4929 57.5277 21.3916 57.4829C21.2902 57.4381 21.1988 57.374 21.1226 57.2944C20.8851 57.0464 20.5805 56.7423 20.228 56.3901C16.7404 52.9063 13.0384 48.9047 13.2646 45.5049C13.2859 45.1663 13.3507 44.8317 13.4577 44.5092C11.6228 41.4272 8.16072 33.6639 6.5828 28.6272C6.01385 26.8101 4.46182 26.0798 3.28942 26.4243C2.10721 26.7715 1.69983 28.1077 2.22631 29.9116L8.54306 51.5501ZM44.8555 74.4226V79.4257C44.8557 79.5779 44.9172 79.7239 45.0265 79.8316C45.1358 79.9392 45.284 79.9998 45.4385 80H64.0458C64.3619 80 64.6288 79.737 64.6288 79.4257V74.4226C64.6288 74.1113 64.3619 73.8484 64.0458 73.8484H45.4385C45.284 73.8486 45.1358 73.9092 45.0265 74.0168C44.9173 74.1244 44.8558 74.2703 44.8555 74.4226ZM58.8778 57.2943C58.7235 57.4537 58.5114 57.5464 58.2879 57.5522C58.0644 57.558 57.8477 57.4764 57.6851 57.3253C57.5225 57.1741 57.4272 56.9657 57.4201 56.7456C57.4131 56.5254 57.4948 56.3115 57.6474 56.1505C57.8976 55.8892 58.208 55.579 58.5675 55.22C60.7342 53.0556 65.2428 48.5519 65.0474 45.6139C65.0017 44.9276 64.6862 44.3691 64.0829 43.9064C62.8036 42.9256 61.1402 43.3018 59.6328 44.9131C56.2364 48.5439 54.9546 49.7448 51.3609 52.919C49.2394 54.7927 49.062 57.7601 49.0618 60.6389C49.0618 65.285 48.7415 67.9737 47.9826 72.1819H61.441C61.1395 65.7029 63.0499 63.126 66.1934 59.7166C66.6338 59.239 67.0264 58.8225 67.38 58.4472C69.5712 56.1225 70.1619 55.4955 71.4573 51.5501L77.7736 29.9115C78.3002 28.1076 77.8929 26.7713 76.7105 26.4241C75.5394 26.0805 73.9862 26.8098 73.4173 28.627C71.8263 33.7048 68.3863 41.4137 66.5422 44.5092C66.6492 44.8317 66.714 45.1663 66.7353 45.5049C66.9614 48.9047 63.2597 52.9063 59.7719 56.3901C59.4195 56.7423 59.1153 57.0464 58.8778 57.2943Z" fill="#5184C4"/>
<path d="M29.1106 37.4583H14.8719C14.7484 37.4583 14.6622 37.4136 14.5923 37.313C14.5224 37.2126 14.5113 37.1173 14.5559 37.0038C16.2423 32.7194 20.0058 29.951 24.1435 29.951C27.2117 29.951 30.1461 31.5014 32.1308 34.1338C30.9807 35.0497 29.96 36.1697 29.1106 37.4583Z" fill="#C4AA6C"/>
<path d="M28.3572 24.1333C28.3572 26.4222 26.467 28.2843 24.1435 28.2843C21.8201 28.2843 19.9298 26.4222 19.9298 24.1333C19.9298 21.8444 21.8201 19.9823 24.1435 19.9823C26.467 19.9823 28.3572 21.8444 28.3572 24.1333Z" fill="#C4AA6C"/>
<path d="M29.4408 41.5793C29.3182 41.5793 29.2324 41.5351 29.1625 41.4359C29.0927 41.3368 29.0805 41.2423 29.1231 41.1293C30.9863 36.1887 35.2561 32.9963 40.0009 32.9963C44.7456 32.9963 49.0154 36.1887 50.8787 41.1291C50.9213 41.2423 50.9093 41.3369 50.8394 41.4359C50.7694 41.5351 50.6836 41.5793 50.5611 41.5793H29.4408Z" fill="#C4AA6C"/>
<path d="M65.13 37.4583H50.8914C50.0419 36.1697 49.0213 35.0497 47.8712 34.1338C49.8557 31.5014 52.7902 29.951 55.8582 29.951C59.9962 29.951 63.7595 32.7194 65.4459 37.0038C65.4905 37.1171 65.4794 37.2125 65.4095 37.313C65.3398 37.4135 65.2535 37.4583 65.13 37.4583Z" fill="#C4AA6C"/>
<path d="M43.3315 21.0993C42.3256 20.5044 41.1741 20.1908 40.0009 20.192C38.8276 20.1908 37.6762 20.5044 36.6703 21.0993C26.3943 13.7136 25.9971 7.69545 26.3126 5.42856C26.6462 3.03151 28.1194 1.20044 30.3546 0.404644C33.2037 -0.609472 36.5962 0.309482 39.4299 2.86302C39.5858 3.00356 39.7895 3.0815 40.0009 3.0815C40.2122 3.0815 40.4159 3.00356 40.5719 2.86302C43.4056 0.309482 46.7979 -0.609638 49.6472 0.404644C51.8822 1.20044 53.3556 3.03168 53.6892 5.42856C54.0047 7.69545 53.6073 13.7138 43.3315 21.0993Z" fill="#C4AA6C"/>
<path d="M60.0721 24.1331C60.0721 26.422 58.1819 28.2841 55.8584 28.2841C53.5348 28.2841 51.6445 26.422 51.6445 24.1331C51.6445 21.8442 53.5349 19.9822 55.8584 19.9822C58.1819 19.9822 60.0721 21.8442 60.0721 24.1331Z" fill="#C4AA6C"/>
<path d="M44.8082 26.5938C44.8082 29.205 42.6517 31.3294 40.0011 31.3294C37.3506 31.3294 35.1941 29.2049 35.1941 26.5938C35.1941 23.9828 37.3504 21.8584 40.0011 21.8584C42.6517 21.8584 44.8082 23.9826 44.8082 26.5938Z" fill="#C4AA6C"/>
</g>
<defs>
<clipPath id="clip0_1100_4553">
<rect width="80" height="80" fill="white"/>
</clipPath>
</defs>
</svg>
