<?xml version="1.0" standalone="no"?>
<!DOCTYPE svg PUBLIC "-//W3C//DTD SVG 20010904//EN"
 "http://www.w3.org/TR/2001/REC-SVG-20010904/DTD/svg10.dtd">
<svg version="1.0" xmlns="http://www.w3.org/2000/svg"
 width="3808.000000pt" height="3808.000000pt" viewBox="0 0 3808.000000 3808.000000"
 preserveAspectRatio="xMidYMid meet">
<metadata>
Created by potrace 1.14, written by Peter Selinger 2001-2017
</metadata>
<g transform="translate(0.000000,3808.000000) scale(0.100000,-0.100000)"
fill="#000000" stroke="none">
<path d="M14350 21789 c-30 -3 -67 -5 -83 -5 -15 1 -27 -3 -27 -7 0 -5 -4 -5
-10 -2 -8 5 -110 -6 -175 -19 -11 -2 -40 -7 -65 -11 -25 -4 -88 -18 -140 -31
-52 -14 -102 -27 -111 -29 -132 -29 -412 -150 -592 -256 -32 -19 -66 -38 -76
-44 -29 -17 -205 -143 -226 -163 -11 -9 -33 -27 -49 -40 -106 -82 -332 -307
-404 -402 -15 -19 -37 -46 -50 -60 -13 -14 -33 -41 -44 -60 -12 -19 -25 -37
-29 -40 -6 -4 -86 -126 -136 -206 -19 -31 -127 -245 -145 -289 -9 -22 -24 -58
-33 -80 -44 -106 -114 -348 -129 -445 -3 -19 -8 -46 -11 -60 -3 -14 -8 -45
-11 -70 -3 -25 -8 -53 -10 -63 -26 -140 -25 -674 2 -817 2 -14 6 -38 9 -55 28
-205 107 -468 203 -680 29 -66 56 -128 59 -137 3 -10 9 -18 14 -18 5 0 9 -5 9
-11 0 -24 165 -279 254 -393 132 -169 306 -343 501 -503 44 -37 223 -163 230
-163 4 0 35 -18 130 -77 30 -19 201 -101 269 -130 69 -29 310 -109 352 -117
16 -3 71 -14 122 -25 51 -11 114 -23 140 -26 26 -4 58 -8 72 -11 105 -19 539
-26 675 -11 107 11 158 18 185 23 14 2 43 7 65 10 33 5 132 27 170 38 6 1 28
7 50 11 49 11 47 10 65 17 8 3 65 23 125 43 61 21 116 42 123 47 6 6 12 8 12
5 0 -3 35 11 78 32 42 21 98 48 124 60 26 11 50 26 53 31 4 6 11 8 16 5 5 -4
9 -2 9 4 0 5 10 13 22 17 12 3 26 10 32 15 6 5 63 44 127 87 130 86 195 136
313 242 120 107 332 338 386 420 8 12 20 28 26 34 27 28 164 242 164 255 0 5
3 11 8 13 11 5 112 205 112 223 0 8 4 15 9 15 5 0 13 15 16 33 4 17 11 34 15
37 8 6 106 302 113 345 7 39 15 73 21 93 3 9 8 34 12 56 3 21 7 46 9 55 43
235 53 671 20 891 -2 14 -6 41 -9 60 -22 154 -62 323 -108 460 -18 52 -33 97
-33 100 -1 3 -6 16 -13 30 -53 119 -82 189 -82 198 0 6 -3 12 -7 14 -5 2 -21
30 -38 63 -61 123 -217 351 -335 490 -84 98 -389 391 -438 419 -18 10 -48 34
-74 59 -10 9 -20 17 -22 17 -2 0 -39 24 -82 53 -44 28 -101 66 -129 82 -57 35
-280 146 -298 149 -7 1 -21 7 -32 13 -44 24 -306 106 -410 129 -115 24 -140
29 -287 49 -15 2 -32 6 -37 9 -5 4 -12 2 -16 -4 -4 -6 -11 -8 -16 -4 -5 3 -22
8 -37 10 -39 8 -397 10 -462 3z m404 -693 c50 -5 99 -10 110 -12 11 -2 38 -6
61 -9 64 -9 255 -56 315 -77 95 -34 290 -121 290 -129 0 -5 7 -9 15 -9 22 0
195 -114 294 -194 145 -117 297 -279 429 -458 23 -31 42 -59 42 -62 0 -2 17
-33 38 -67 72 -119 179 -371 196 -462 2 -12 11 -49 19 -82 15 -56 24 -104 32
-165 2 -14 6 -36 9 -49 8 -35 19 -222 19 -321 0 -87 -17 -325 -23 -325 -1 0
-3 -13 -5 -30 -4 -36 -14 -94 -20 -115 -2 -8 -7 -29 -9 -46 -3 -17 -12 -49
-20 -71 -8 -23 -12 -44 -9 -47 4 -3 0 -6 -7 -6 -7 0 -11 -3 -7 -6 16 -17 -98
-284 -185 -431 -139 -236 -399 -514 -618 -660 -97 -65 -218 -133 -280 -157 -8
-3 -22 -10 -30 -15 -66 -43 -370 -129 -510 -146 -30 -3 -62 -8 -71 -11 -39
-11 -294 -18 -310 -8 -4 2 -10 0 -13 -4 -3 -5 -25 -6 -48 -3 -24 4 -64 7 -90
6 -27 0 -48 2 -48 5 0 3 -15 5 -32 5 -34 1 -114 11 -158 20 -41 9 -113 25
-140 31 -13 3 -53 14 -87 26 -35 11 -69 21 -76 22 -6 1 -17 5 -23 8 -6 4 -37
17 -69 29 -82 30 -249 117 -325 169 -46 31 -137 96 -146 105 -7 5 -31 25 -55
44 -24 19 -90 81 -145 137 -179 181 -320 389 -419 619 -9 22 -21 49 -26 60
-23 53 -77 232 -85 280 -1 6 -3 12 -4 15 -2 7 -7 28 -19 95 -17 95 -22 134
-26 220 -2 44 -5 81 -5 83 -5 6 -4 262 0 262 3 0 5 17 5 38 1 65 16 186 32
257 4 17 7 32 8 35 10 52 22 99 24 103 2 1 4 13 7 27 5 31 32 115 49 155 18
42 28 68 31 82 2 13 97 206 104 213 3 3 23 34 44 70 22 36 43 67 48 68 4 2 8
8 8 13 0 6 5 15 10 22 6 7 24 30 41 52 95 126 237 270 369 376 221 176 529
327 770 375 14 3 41 9 60 14 58 14 180 31 275 37 50 3 91 6 92 7 5 4 219 -2
297 -8z"/>
<path d="M25757 21794 c-1 -1 -48 -5 -104 -8 -56 -4 -112 -9 -125 -11 -13 -2
-59 -9 -103 -15 -44 -7 -109 -19 -145 -26 -36 -8 -75 -17 -88 -20 -47 -10
-260 -77 -322 -101 -223 -87 -471 -229 -660 -377 -98 -77 -108 -85 -188 -161
-143 -135 -241 -239 -319 -340 -5 -5 -32 -40 -61 -77 -28 -37 -52 -70 -52 -73
0 -3 -15 -26 -34 -52 -67 -94 -226 -393 -226 -426 0 -7 -4 -17 -9 -22 -30 -33
-133 -385 -155 -530 -4 -22 -8 -47 -11 -55 -2 -8 -7 -37 -10 -65 -4 -27 -8
-63 -10 -80 -26 -198 -21 -537 10 -760 10 -72 12 -86 19 -125 3 -19 8 -46 10
-60 2 -14 7 -32 10 -40 3 -8 8 -26 10 -40 9 -45 15 -71 22 -93 5 -12 8 -26 9
-32 2 -20 29 -100 37 -110 4 -5 8 -16 8 -25 0 -43 134 -335 212 -463 26 -43
48 -82 48 -86 0 -4 9 -16 20 -26 11 -10 20 -23 20 -29 0 -6 9 -22 20 -36 11
-14 49 -63 85 -110 36 -47 80 -103 98 -125 52 -63 298 -307 355 -350 29 -21
52 -43 52 -47 0 -4 6 -8 14 -8 8 0 16 -3 18 -8 2 -4 28 -25 58 -47 30 -22 60
-43 65 -48 31 -24 182 -117 192 -117 6 0 13 -4 15 -8 5 -14 246 -128 353 -167
86 -32 193 -67 245 -80 141 -34 197 -45 360 -70 175 -26 661 -27 795 -1 11 2
45 8 75 12 30 4 57 8 60 9 3 1 19 4 35 8 17 4 41 8 55 11 57 9 202 49 300 83
113 38 124 43 243 97 44 20 83 36 88 36 5 0 9 5 9 10 0 6 9 10 20 10 11 0 20
5 20 10 0 6 9 10 20 10 11 0 20 5 20 10 0 6 4 10 10 10 5 0 36 16 67 37 250
157 335 225 539 428 153 153 193 197 288 325 39 52 74 97 79 98 4 2 7 8 7 14
0 5 14 29 30 54 108 157 230 415 299 634 30 97 67 246 76 303 2 18 6 43 9 56
3 13 8 49 12 80 3 31 8 65 10 76 22 118 22 549 -1 695 -2 14 -7 49 -10 79 -4
30 -9 63 -11 75 -2 12 -7 37 -10 56 -3 19 -12 62 -21 95 -8 33 -19 80 -24 105
-6 25 -13 52 -16 60 -4 8 -7 18 -8 23 -2 4 -3 8 -5 10 -1 1 -3 10 -6 20 -7 28
-11 41 -19 62 -4 11 -23 61 -43 110 -42 109 -166 358 -187 375 -8 7 -15 17
-15 22 0 24 -183 274 -280 383 -98 110 -338 339 -404 385 -12 8 -26 19 -32 25
-15 14 -168 119 -234 160 -30 19 -60 39 -67 45 -7 5 -17 10 -23 10 -6 0 -27
10 -48 23 -96 59 -340 159 -487 200 -117 33 -146 40 -200 51 -105 21 -126 25
-185 31 -25 2 -55 7 -67 9 -59 12 -495 30 -506 20z m348 -698 c50 -4 97 -9
105 -11 8 -2 35 -7 60 -10 25 -3 61 -10 80 -15 19 -5 46 -11 60 -13 87 -16
282 -84 390 -136 90 -44 226 -121 256 -146 7 -5 43 -32 81 -60 217 -160 453
-430 581 -664 45 -83 139 -297 145 -330 2 -9 13 -47 24 -86 30 -99 34 -119 52
-230 21 -130 23 -160 26 -365 3 -190 -9 -334 -39 -485 -14 -67 -19 -87 -37
-150 -27 -91 -65 -198 -84 -235 -9 -16 -16 -33 -17 -37 -2 -13 -58 -125 -85
-173 -44 -77 -107 -168 -168 -245 -22 -27 -47 -59 -55 -69 -36 -48 -244 -246
-310 -296 -40 -30 -78 -61 -85 -67 -8 -7 -18 -13 -23 -13 -5 0 -15 -6 -21 -14
-7 -8 -26 -22 -44 -31 -18 -8 -48 -25 -67 -37 -92 -54 -333 -161 -343 -151 -3
2 -16 -1 -28 -8 -13 -7 -39 -16 -59 -21 -19 -5 -42 -10 -50 -12 -41 -11 -114
-27 -146 -32 -20 -3 -46 -8 -58 -10 -62 -13 -172 -19 -351 -19 -221 1 -331 10
-462 40 -13 3 -33 7 -45 10 -13 3 -34 7 -48 10 -30 6 -207 62 -235 75 -52 24
-176 79 -183 81 -32 11 -251 154 -307 201 -11 9 -40 33 -65 53 -88 72 -187
174 -272 279 -10 11 -24 28 -31 36 -8 8 -22 29 -33 45 -10 17 -21 32 -24 35
-3 3 -30 43 -59 89 -138 217 -255 543 -286 796 -19 158 -25 437 -11 555 3 30
8 78 11 105 3 28 7 61 10 75 3 14 7 36 10 50 11 56 14 71 36 151 21 81 125
359 138 369 3 3 21 34 39 69 143 277 435 581 737 767 44 27 82 49 85 50 3 0
48 21 100 46 86 42 247 104 293 113 10 2 27 7 37 10 10 3 29 8 42 11 50 10 84
16 103 20 65 13 152 24 235 30 52 3 96 7 98 9 4 4 202 -2 297 -9z"/>
<path d="M256 21690 c-1 -3 -2 -1211 -2 -2685 l1 -2680 30 -2 c17 0 35 -2 40
-3 6 0 249 -1 540 0 292 0 537 1 545 1 140 -2 217 -2 225 -1 6 1 12 2 15 1 14
-6 100 -5 100 0 0 4 15 3 33 0 17 -4 49 -4 70 0 20 3 37 4 37 0 0 -3 21 -5 47
-3 27 1 55 3 63 3 91 -1 113 -1 121 4 5 4 9 3 9 -2 0 -4 21 -7 47 -5 27 1 53
3 58 3 47 0 224 -1 240 -1 28 0 117 1 124 2 3 0 8 0 11 -1 14 -6 100 -5 100 0
0 4 15 3 33 0 17 -4 49 -4 70 0 20 3 37 4 37 0 0 -3 21 -5 47 -3 27 1 55 3 63
3 91 -1 113 -1 121 4 5 4 9 3 9 -2 0 -4 21 -7 47 -5 48 3 85 3 100 1 4 -1 18
-1 31 0 l22 1 0 338 0 337 -1157 0 -1158 0 -5 2350 -5 2350 -353 0 c-195 0
-355 -2 -356 -5z"/>
<path d="M4012 21690 c-5 -4 -8 -5345 -3 -5370 1 -3 25 -4 53 -2 29 2 64 3 78
2 100 -4 520 -4 520 0 0 4 16 4 35 2 34 -4 35 -3 26 21 -5 14 -7 27 -5 30 3 3
5 90 4 194 -1 203 -1 198 0 276 1 51 1 93 0 232 0 160 0 177 5 185 3 5 1 11
-5 15 -6 4 -8 11 -4 16 3 6 6 47 5 92 -1 102 0 165 2 289 1 54 -2 98 -6 98 -5
0 -5 5 -1 11 3 6 6 45 5 87 -1 90 -1 128 2 364 1 98 -2 178 -6 178 -5 0 -5 5
-1 11 3 6 6 45 5 87 -1 90 -1 128 2 364 1 98 -2 178 -6 178 -5 0 -5 5 -1 11 3
6 6 45 5 87 -1 90 -1 128 2 364 1 98 -2 178 -6 178 -5 0 -5 5 -1 11 3 6 6 45
5 87 -1 90 -1 128 2 364 1 98 -2 178 -6 178 -5 0 -5 5 -1 11 3 6 6 45 5 87 -1
90 -1 128 2 364 1 98 -2 178 -6 178 -5 0 -5 5 -1 11 4 6 6 50 5 98 -1 47 -2
91 -2 96 -1 94 0 460 2 471 1 5 1 18 0 29 -1 20 -6 21 -352 20 -192 0 -353 -2
-357 -5z"/>
<path d="M5876 21690 c-2 -3 -3 -1211 -2 -2685 l1 -2679 32 -7 c17 -3 37 -3
44 2 7 4 21 4 32 0 11 -4 38 -5 59 -1 21 4 38 5 38 1 0 -3 19 -5 42 -4 24 1
54 2 68 3 14 1 46 0 73 -2 26 -2 47 0 47 3 0 4 17 3 38 0 20 -4 52 -4 70 0 17
3 32 4 32 0 0 -5 85 -6 100 0 3 0 12 1 21 0 16 -2 17 153 17 2084 0 1147 2
2088 5 2091 5 5 23 -23 66 -105 7 -14 22 -35 32 -47 11 -11 17 -23 14 -26 -3
-3 1 -11 10 -18 8 -7 15 -19 15 -26 0 -8 5 -14 10 -14 6 0 10 -4 10 -9 0 -6
14 -30 30 -54 17 -25 30 -50 30 -56 0 -6 5 -11 11 -11 5 0 8 -4 4 -9 -3 -5 -1
-12 4 -15 7 -5 191 -305 304 -498 18 -31 385 -638 416 -689 9 -15 34 -57 56
-94 45 -75 49 -83 129 -213 31 -51 56 -97 56 -102 0 -4 3 -10 8 -12 6 -2 64
-96 142 -229 17 -29 166 -275 181 -299 49 -78 123 -203 141 -237 12 -24 26
-43 30 -43 4 0 8 -9 8 -20 0 -11 4 -20 8 -20 4 0 15 -13 25 -29 15 -25 22 -28
62 -26 25 1 46 4 48 6 2 2 111 184 242 404 132 220 244 403 250 407 5 4 7 8 3
8 -7 0 29 59 52 87 5 7 10 17 10 22 0 5 6 16 13 23 15 17 43 64 59 101 7 15
16 27 20 27 4 0 8 4 8 9 0 4 48 87 106 182 58 96 110 184 115 197 5 12 13 22
19 22 5 0 10 4 10 10 0 9 132 237 186 320 57 89 224 373 224 381 0 5 5 9 10 9
6 0 10 4 10 9 0 12 92 165 102 169 4 2 8 8 8 12 0 5 25 51 57 102 31 51 61
102 67 113 23 41 177 295 180 295 1 0 2 -935 2 -2077 -1 -1143 1 -2086 3
-2096 3 -15 12 -18 45 -17 22 1 43 1 46 0 16 -5 100 -4 100 1 0 4 15 3 33 0
17 -4 49 -4 70 0 20 3 37 4 37 0 0 -3 21 -5 47 -3 27 1 55 3 63 3 8 0 34 -1
56 -1 23 -1 46 0 50 1 5 1 14 0 19 -1 18 -4 126 -1 133 4 4 2 7 1212 7 2688
l0 2683 -395 1 c-217 0 -400 -1 -407 -4 -10 -3 -61 -83 -138 -217 -11 -19 -47
-78 -79 -132 -32 -53 -64 -106 -70 -117 -6 -12 -20 -34 -30 -51 -34 -54 -43
-70 -44 -79 0 -5 -5 -12 -10 -15 -5 -3 -19 -22 -30 -42 -43 -77 -277 -464
-283 -469 -3 -3 -9 -15 -13 -27 -4 -13 -12 -23 -17 -23 -5 0 -9 -9 -9 -20 0
-11 -4 -20 -10 -20 -5 0 -10 -7 -10 -15 0 -8 -4 -15 -8 -15 -4 0 -18 -19 -30
-42 -26 -49 -25 -48 -107 -183 -33 -55 -63 -101 -67 -103 -5 -2 -8 -12 -8 -22
0 -10 -3 -20 -8 -22 -6 -2 -200 -320 -278 -455 -88 -152 -420 -699 -426 -701
-4 -2 -8 -10 -8 -19 0 -18 -32 -51 -37 -38 -6 16 -139 241 -248 416 -5 9 -20
34 -33 55 -65 111 -78 132 -111 184 -19 30 -42 69 -51 85 -20 38 -43 76 -53
89 -8 11 -559 926 -588 976 -8 14 -16 27 -19 30 -3 3 -12 19 -20 35 -8 17 -17
32 -20 35 -7 6 -219 359 -250 415 -12 22 -26 45 -30 50 -5 6 -70 112 -144 235
l-135 225 -401 0 c-221 0 -403 -2 -404 -5z"/>
<path d="M18197 21685 c-2 -5 -3 -1213 -3 -2684 1 -2666 1 -2674 21 -2678 23
-4 75 -6 90 -3 6 1 13 2 18 1 17 -5 108 -3 113 2 3 3 17 2 32 -2 15 -4 41 -4
59 0 18 3 35 4 38 1 3 -3 29 -5 58 -3 28 1 57 2 62 2 6 0 51 -1 100 -1 50 -1
98 -1 107 -1 17 1 18 105 20 2006 l3 2005 67 -97 c37 -54 117 -170 178 -258
61 -88 119 -173 130 -190 10 -16 22 -35 27 -40 4 -6 26 -37 49 -70 60 -88 146
-214 208 -302 29 -43 73 -107 97 -143 24 -36 46 -67 49 -70 15 -15 70 -100 70
-108 0 -6 4 -12 8 -14 11 -4 152 -207 152 -218 0 -4 4 -10 8 -12 5 -1 53 -68
107 -148 54 -80 102 -146 107 -148 4 -2 8 -9 8 -16 0 -7 8 -21 18 -32 9 -11
22 -27 27 -37 10 -15 29 -44 166 -242 34 -49 80 -117 103 -150 22 -33 43 -62
46 -65 3 -3 19 -26 35 -52 17 -27 33 -48 38 -48 4 0 7 -6 7 -14 0 -8 6 -21 13
-28 13 -13 45 -59 233 -332 60 -87 125 -182 144 -210 20 -28 78 -114 130 -191
52 -77 100 -145 107 -152 6 -7 21 -29 34 -50 13 -21 25 -40 28 -43 4 -3 24
-32 47 -65 22 -33 66 -97 97 -142 31 -45 57 -86 57 -90 0 -5 9 -15 20 -23 11
-8 20 -19 20 -26 0 -6 9 -21 19 -33 11 -13 39 -52 62 -87 24 -35 48 -64 53
-65 6 0 52 0 101 1 50 1 97 1 105 1 102 -2 217 -2 225 -1 6 1 15 1 20 0 21 -4
106 -2 111 3 4 3 7 4243 4 5272 l0 101 -352 0 c-194 0 -355 -3 -358 -7 -3 -4
-5 -905 -4 -2002 0 -1859 -1 -1993 -16 -1973 -18 22 -125 177 -216 311 -30 44
-88 127 -129 185 -41 58 -78 113 -81 123 -4 9 -10 17 -15 17 -5 0 -9 7 -9 15
0 8 -4 15 -10 15 -5 0 -10 6 -10 14 0 8 -3 16 -7 18 -5 2 -33 39 -63 83 -30
44 -58 82 -62 83 -4 2 -8 7 -8 12 0 5 -37 62 -83 127 -46 65 -92 133 -102 151
-11 17 -23 32 -27 32 -4 0 -8 6 -8 14 0 8 -3 16 -8 18 -4 2 -41 53 -82 113
-40 61 -76 112 -80 115 -3 3 -28 39 -55 80 -42 63 -161 236 -210 305 -8 11
-40 58 -72 105 -31 47 -59 87 -62 90 -3 3 -10 12 -16 21 -12 20 -91 136 -156
229 -25 36 -85 124 -134 195 -49 72 -93 132 -97 133 -4 2 -8 8 -8 13 0 9 -36
65 -50 79 -5 5 -62 88 -131 190 -24 36 -48 70 -54 77 -17 20 -29 38 -40 56
-17 27 -170 252 -176 257 -3 3 -45 64 -94 135 -49 72 -148 216 -222 322 -73
105 -133 194 -133 198 0 3 -9 16 -21 28 -20 22 -24 22 -304 22 -189 1 -286 -3
-288 -10z"/>
<path d="M28794 21685 c3 -17 28 -88 41 -120 7 -16 20 -50 28 -75 8 -25 34
-97 57 -160 22 -63 48 -135 56 -160 8 -25 19 -54 23 -65 9 -20 39 -105 101
-280 17 -49 40 -112 50 -140 10 -27 33 -90 50 -140 17 -49 35 -98 40 -107 6
-10 10 -25 10 -33 0 -8 4 -23 10 -33 5 -9 37 -96 70 -192 34 -96 65 -184 70
-195 13 -29 51 -137 57 -160 2 -11 8 -29 13 -40 5 -11 20 -54 35 -95 15 -41
34 -93 42 -115 8 -22 23 -65 33 -95 10 -30 24 -68 31 -85 6 -16 13 -34 15 -40
1 -5 23 -68 49 -140 60 -168 78 -219 99 -280 9 -27 21 -59 26 -70 5 -11 19
-49 31 -85 12 -36 26 -76 32 -90 6 -14 11 -27 11 -30 9 -37 43 -130 49 -130 4
0 7 -8 7 -19 0 -10 9 -40 19 -67 20 -50 111 -301 115 -319 2 -5 8 -23 14 -38
7 -16 12 -34 12 -41 0 -6 4 -16 8 -21 5 -6 17 -37 27 -70 10 -33 23 -69 29
-80 5 -11 11 -22 11 -25 5 -23 79 -237 95 -275 8 -19 92 -254 124 -345 8 -25
24 -69 35 -98 12 -28 21 -55 22 -60 1 -4 6 -18 11 -32 6 -14 11 -29 12 -35 2
-5 6 -17 9 -25 3 -8 27 -73 52 -145 197 -556 179 -510 211 -512 16 0 31 -2 34
-3 16 -5 100 -4 100 1 0 4 15 3 33 0 17 -4 49 -4 70 0 20 3 37 4 37 0 0 -3 21
-5 47 -3 27 1 55 3 63 3 91 -1 113 -1 121 4 5 4 9 3 9 -2 0 -4 21 -7 47 -5 27
1 54 3 61 3 57 0 84 0 95 1 6 0 17 -1 22 -2 29 -7 43 3 55 43 8 23 18 48 23
55 5 6 6 12 2 12 -4 0 -3 6 3 13 5 6 15 28 20 47 11 37 39 116 92 260 17 47
33 92 35 100 3 8 36 103 76 210 39 107 79 220 90 250 10 30 27 80 39 110 12
30 23 62 25 70 2 8 24 69 48 135 25 66 57 156 72 200 14 44 30 89 35 100 8 17
37 97 162 450 17 50 50 139 59 160 4 11 24 67 45 125 72 206 132 376 167 470
19 52 51 142 72 200 20 58 47 134 60 170 26 71 36 102 37 110 0 3 5 14 10 24
6 11 26 63 44 115 18 53 47 134 64 181 17 47 33 90 34 95 2 6 6 17 9 25 4 8
20 56 37 105 17 50 35 99 40 110 5 11 39 106 76 210 37 105 71 201 77 215 6
14 11 30 13 35 1 6 16 48 33 95 18 47 33 90 34 95 7 25 30 91 36 100 3 6 6 15
8 20 2 11 30 91 40 115 7 19 65 181 130 365 28 77 55 150 61 161 10 19 7 20
-380 19 l-391 0 -44 -125 c-24 -69 -45 -129 -47 -135 -2 -5 -6 -17 -9 -25 -3
-8 -13 -40 -23 -70 -9 -30 -19 -59 -23 -65 -3 -5 -6 -14 -7 -20 -1 -5 -34
-102 -74 -215 -39 -113 -73 -212 -75 -220 -2 -8 -25 -73 -50 -145 -26 -71 -55
-157 -66 -190 -11 -33 -24 -69 -29 -80 -5 -11 -13 -36 -19 -55 -5 -19 -28 -87
-51 -150 -22 -63 -69 -198 -104 -300 -36 -102 -92 -264 -126 -360 -33 -96 -63
-182 -65 -190 -2 -8 -4 -15 -5 -15 -1 0 -3 -7 -5 -15 -2 -13 -31 -95 -52 -150
-3 -8 -8 -24 -10 -34 -2 -11 -8 -25 -14 -33 -6 -7 -8 -13 -4 -13 4 0 3 -6 -3
-13 -6 -7 -13 -24 -16 -37 -7 -33 -103 -311 -110 -318 -3 -3 -6 -11 -6 -18 0
-7 -5 -25 -11 -41 -6 -15 -11 -30 -11 -33 0 -3 -11 -32 -23 -65 -13 -33 -44
-123 -70 -200 -26 -77 -63 -183 -82 -235 -19 -52 -36 -102 -38 -110 -4 -16
-131 -385 -142 -410 -3 -8 -7 -19 -8 -25 -2 -5 -19 -57 -40 -115 -20 -58 -38
-109 -39 -115 -2 -5 -8 -22 -13 -36 -6 -14 -17 -44 -24 -68 l-13 -43 -23 69
c-20 56 -39 114 -48 143 -1 3 -4 12 -8 20 -3 8 -20 56 -37 105 -17 50 -33 97
-37 105 -3 8 -7 17 -8 20 -13 42 -43 130 -80 235 -25 72 -55 157 -66 190 -11
33 -23 69 -28 80 -9 22 -31 84 -35 100 -2 6 -6 17 -9 25 -3 8 -26 74 -51 145
-24 72 -51 149 -60 173 -8 23 -13 42 -10 42 3 0 -2 12 -10 28 -13 24 -92 244
-101 282 -2 8 -4 16 -5 18 -2 1 -3 5 -4 10 -1 4 -4 12 -7 17 -3 6 -18 48 -33
95 -15 47 -31 94 -36 105 -12 28 -54 148 -56 160 -1 6 -25 75 -54 155 -28 80
-53 152 -56 160 -2 8 -12 40 -23 70 -37 103 -153 435 -176 505 -13 39 -45 129
-70 200 -26 72 -49 139 -52 150 -3 11 -9 29 -13 40 -9 20 -66 184 -100 285
-10 30 -44 127 -75 215 -31 88 -58 165 -59 170 -2 6 -6 19 -10 30 -5 11 -12
31 -16 45 -4 14 -12 34 -16 45 -4 11 -8 22 -9 25 -7 29 -68 199 -75 210 -8 13
-62 15 -388 15 -255 0 -379 -3 -378 -10z"/>
<path d="M35251 21685 c-5 -5 -12 -25 -16 -43 -3 -18 -13 -45 -20 -60 -7 -15
-38 -97 -69 -182 -31 -85 -61 -163 -66 -172 -6 -10 -10 -23 -10 -28 0 -6 -9
-31 -20 -56 -11 -24 -23 -58 -27 -74 -3 -17 -10 -30 -15 -30 -5 0 -7 -4 -4 -8
3 -5 -1 -21 -9 -35 -8 -15 -14 -31 -14 -35 0 -4 -18 -54 -40 -112 -22 -58 -90
-240 -151 -405 -61 -165 -115 -309 -120 -320 -14 -33 -23 -59 -26 -75 -2 -8
-8 -23 -13 -35 -6 -11 -45 -112 -87 -225 -135 -366 -156 -425 -167 -450 -5
-14 -11 -29 -13 -35 -2 -10 -128 -348 -184 -495 -55 -143 -171 -455 -174 -465
-2 -5 -6 -17 -9 -25 -9 -21 -88 -233 -91 -245 -2 -5 -8 -23 -15 -40 -25 -65
-52 -135 -91 -245 -23 -63 -48 -129 -56 -147 -8 -17 -14 -36 -14 -42 0 -6 -4
-19 -10 -29 -5 -9 -39 -98 -75 -197 -36 -99 -72 -196 -80 -215 -18 -44 -126
-332 -129 -345 -2 -5 -6 -17 -9 -25 -4 -8 -43 -114 -88 -235 -45 -121 -83
-223 -86 -227 -2 -5 6 -8 19 -8 13 1 45 0 71 0 26 0 52 2 57 5 6 4 10 3 10 -2
0 -4 23 -8 50 -8 28 0 50 3 50 6 0 4 17 3 38 0 20 -4 52 -4 70 0 17 3 32 4 32
0 0 -5 86 -6 100 0 3 1 9 1 14 0 23 -5 126 -4 131 1 3 3 25 2 50 -2 28 -4 51
-3 59 4 8 6 55 126 106 266 50 140 95 264 99 275 5 11 14 36 21 55 7 19 16 44
20 55 4 11 22 61 40 110 17 50 35 99 40 110 5 11 31 83 59 160 27 77 52 147
56 155 5 14 134 16 1208 15 661 0 1207 -3 1213 -7 7 -4 19 -31 28 -60 9 -29
21 -62 26 -73 5 -11 19 -49 31 -85 12 -36 26 -73 31 -83 5 -10 11 -26 13 -35
5 -21 33 -101 44 -127 22 -50 40 -105 35 -105 -4 0 -1 -7 6 -15 6 -8 18 -33
25 -57 7 -24 25 -74 40 -113 14 -38 28 -74 29 -80 2 -5 6 -19 10 -30 5 -11 16
-42 26 -70 10 -27 22 -59 26 -70 4 -11 8 -22 9 -25 1 -3 4 -12 7 -20 3 -8 16
-44 29 -78 15 -43 29 -66 43 -72 12 -4 22 -4 24 0 1 4 17 4 35 1 18 -4 49 -4
69 0 21 3 40 4 42 1 8 -7 96 -8 96 -1 0 4 15 3 33 0 17 -4 49 -4 70 0 20 3 37
4 37 0 0 -3 21 -5 47 -3 61 4 56 3 136 1 37 -1 70 0 73 4 3 3 18 2 33 -3 30
-8 62 2 42 14 -6 4 -11 16 -11 27 0 10 -4 27 -9 37 -6 9 -31 73 -56 142 -48
130 -58 156 -96 255 -13 33 -24 65 -25 70 -2 14 -54 146 -65 167 -5 10 -9 26
-9 36 0 10 -4 22 -9 27 -9 10 -44 102 -62 162 -5 18 -16 45 -24 60 -8 15 -15
34 -15 41 0 7 -4 20 -9 30 -6 9 -22 51 -37 92 -14 41 -30 84 -35 95 -5 11 -31
83 -59 160 -28 77 -55 149 -60 160 -5 11 -25 65 -45 120 -19 55 -42 115 -50
133 -8 18 -15 37 -15 43 0 5 -9 29 -20 51 -11 23 -20 48 -20 55 0 7 -4 21 -9
31 -15 27 -74 186 -74 200 0 6 -4 12 -9 12 -4 0 -8 7 -8 15 0 8 -18 60 -39
117 -22 57 -63 166 -91 243 -28 77 -56 149 -61 160 -6 12 -11 27 -13 35 -2 8
-9 29 -15 45 -7 17 -24 62 -37 100 -14 39 -29 79 -34 90 -4 11 -18 47 -30 80
-13 33 -26 69 -31 80 -5 11 -45 119 -89 240 -45 121 -85 229 -90 240 -5 11
-27 72 -50 135 -49 134 -98 266 -110 295 -5 11 -20 52 -34 90 -14 39 -36 99
-49 135 -14 36 -44 117 -67 180 -23 63 -46 119 -51 125 -5 5 -9 16 -9 25 0 8
-13 49 -29 90 -36 91 -100 261 -179 475 l-59 160 -402 0 c-264 0 -405 -3 -410
-10z m434 -927 c2 -9 8 -25 13 -35 6 -10 20 -48 31 -83 12 -36 26 -74 30 -85
20 -45 220 -590 226 -615 2 -8 4 -16 5 -17 2 -2 3 -6 5 -10 1 -5 7 -21 14 -38
13 -31 60 -162 65 -180 2 -5 6 -17 9 -25 4 -8 20 -53 37 -100 17 -47 34 -94
39 -105 9 -20 55 -145 57 -155 0 -3 4 -14 8 -25 5 -11 19 -51 33 -90 14 -38
31 -86 38 -105 7 -19 23 -61 34 -92 50 -139 63 -174 71 -193 14 -33 38 -99 40
-110 2 -5 6 -19 10 -30 5 -11 18 -47 30 -80 12 -33 28 -76 35 -95 65 -170 104
-284 99 -289 -3 -3 -435 -6 -959 -6 l-954 -1 6 26 c3 14 16 52 29 86 13 33 24
64 24 68 0 5 6 22 14 39 7 18 36 95 64 172 120 333 263 731 269 745 3 8 7 18
7 22 1 3 4 10 9 14 4 4 7 14 7 21 0 8 11 42 24 76 22 56 76 205 202 557 25 69
54 148 64 175 11 28 56 151 100 275 44 124 85 234 90 245 4 11 16 45 26 75
l17 55 15 -35 c8 -19 16 -43 17 -52z"/>
</g>
</svg>
