<svg width="12" height="12" viewBox="0 0 12 12" fill="none" xmlns="http://www.w3.org/2000/svg">
<path d="M6.42406 0.175674L11.8231 5.57573C12.201 5.95374 11.9334 6.59994 11.3989 6.59994H10.799V10.2C10.799 10.6774 10.6094 11.1352 10.2719 11.4728C9.93443 11.8104 9.47668 12 8.99938 12H8.39949V7.79995C8.39952 7.34082 8.22413 6.89904 7.90921 6.56499C7.5943 6.23093 7.16366 6.02987 6.70541 6.00294L6.59983 5.99994H5.40005C4.92275 5.99994 4.46499 6.18958 4.12749 6.52715C3.78999 6.86472 3.60038 7.32256 3.60038 7.79995V12H3.00049C2.52319 12 2.06544 11.8104 1.72794 11.4728C1.39043 11.1352 1.20083 10.6774 1.20083 10.2V6.59994H0.600937C0.0670363 6.59994 -0.201114 5.95374 0.176816 5.57573L5.57582 0.175674C5.68831 0.0631898 5.84087 0 5.99994 0C6.15901 0 6.31156 0.0631898 6.42406 0.175674ZM6.59983 7.19995C6.75893 7.19995 6.91151 7.26316 7.02401 7.37569C7.13651 7.48821 7.19971 7.64082 7.19971 7.79995V12H4.80016V7.79995C4.80018 7.65299 4.85412 7.51115 4.95176 7.40133C5.0494 7.29151 5.18394 7.22134 5.32986 7.20415L5.40005 7.19995H6.59983Z" fill="white"/>
</svg>
