<svg width="40" height="40" viewBox="0 0 40 40" fill="none" xmlns="http://www.w3.org/2000/svg">
<circle cx="20" cy="20" r="20" fill="#4A76A8"/>
<path d="M29.7957 26.6644C29.7957 26.5753 29.7081 26.5753 29.7081 26.4863C29.358 25.774 28.5702 24.8836 27.5198 23.9041C26.9946 23.4589 26.732 23.1027 26.5569 22.9247C26.2943 22.5685 26.2943 22.3014 26.3819 21.9452C26.4694 21.6781 26.8195 21.2329 27.4323 20.4315C27.7824 19.9863 27.9574 19.7192 28.22 19.4521C29.533 17.6712 30.1458 16.5137 29.9707 15.9794L29.8832 15.8904C29.7957 15.8014 29.7081 15.7123 29.533 15.7123C29.358 15.6233 29.0954 15.6233 28.8328 15.7123H25.5066C25.419 15.7123 25.419 15.7123 25.2439 15.7123C25.1564 15.7123 25.0689 15.7123 25.0689 15.7123H24.9814H24.8938L24.8063 15.8014C24.7187 15.8904 24.7187 15.8904 24.7187 15.9794C24.3686 16.9589 23.9309 17.7603 23.4933 18.6507C23.2307 19.0959 22.9681 19.5411 22.7055 19.8973C22.4429 20.2534 22.2678 20.5205 22.0928 20.6986C21.9177 20.8767 21.7426 20.9658 21.6551 21.1438C21.5676 21.2329 21.3925 21.3219 21.3925 21.2329C21.305 21.2329 21.2174 21.2329 21.2174 21.1438C21.1299 21.0548 21.0424 20.9657 20.9548 20.8767C20.8673 20.7877 20.8673 20.6096 20.7798 20.4315C20.7798 20.2534 20.7798 20.0753 20.7798 19.9863C20.7798 19.8973 20.7798 19.6301 20.7798 19.4521C20.7798 19.1849 20.7798 19.0068 20.7798 18.9178C20.7798 18.6507 20.7798 18.2945 20.7798 17.9384C20.7798 17.5822 20.7798 17.3151 20.7798 17.137C20.7798 16.9589 20.7798 16.6918 20.7798 16.5137C20.7798 16.2466 20.7798 16.0685 20.7798 15.9794C20.7798 15.8904 20.6923 15.7123 20.6923 15.6233C20.6047 15.5342 20.5172 15.4452 20.4296 15.3562C20.3421 15.2671 20.167 15.2671 20.0795 15.1781C19.6419 15.089 19.1167 15 18.5039 15C17.1034 15 16.1405 15.089 15.7904 15.2671C15.6154 15.3562 15.4403 15.4452 15.3528 15.6233C15.1777 15.8014 15.1777 15.8904 15.2652 15.8904C15.7029 15.9795 16.053 16.1575 16.2281 16.4247L16.3156 16.6027C16.4032 16.6918 16.4031 16.8699 16.4907 17.137C16.5782 17.4041 16.5782 17.6712 16.5782 18.0274C16.5782 18.5616 16.5782 19.0959 16.5782 19.4521C16.5782 19.8973 16.4907 20.1644 16.4907 20.4315C16.4907 20.6986 16.4032 20.8767 16.3156 20.9658C16.2281 21.1438 16.2281 21.2329 16.1405 21.2329C16.1405 21.2329 16.1405 21.3219 16.053 21.3219C15.9655 21.3219 15.8779 21.411 15.7029 21.411C15.6153 21.411 15.4403 21.3219 15.3528 21.2329C15.1777 21.1438 15.0026 20.9658 14.9151 20.7877C14.74 20.6096 14.565 20.3425 14.3899 19.9863C14.2148 19.6301 13.9522 19.274 13.7772 18.7397L13.6021 18.3836C13.5146 18.2055 13.3395 17.8493 13.1644 17.4041C12.9894 16.9589 12.8143 16.6027 12.6392 16.1575C12.5517 15.9795 12.4642 15.8904 12.3766 15.8014H12.2891C12.2891 15.8014 12.2016 15.7123 12.114 15.7123C12.0265 15.7123 11.939 15.6233 11.8514 15.6233H8.70026C8.35013 15.6233 8.17507 15.7123 8.08754 15.8014L8 15.8904C8 15.8904 8 15.9794 8 16.0685C8 16.1575 8.00001 16.2466 8.08754 16.4247C8.5252 17.4931 9.0504 18.5616 9.57559 19.6301C10.1008 20.6096 10.626 21.5 10.9761 22.1233C11.4138 22.7466 11.7639 23.3699 12.2016 23.9041C12.6392 24.4384 12.9018 24.7945 12.9894 24.9726C13.1644 25.1507 13.252 25.2397 13.3395 25.3288L13.6021 25.5959C13.7772 25.774 14.0398 26.0411 14.3899 26.3082C14.74 26.5753 15.1777 26.8425 15.6153 27.1096C16.053 27.3767 16.5782 27.5548 17.1034 27.7329C17.7161 27.911 18.2413 28 18.7665 27.911H20.0795C20.3421 27.911 20.5172 27.8219 20.6923 27.6438L20.7798 27.5548C20.7798 27.4658 20.8673 27.4658 20.8673 27.3767C20.8673 27.2877 20.8673 27.1986 20.8673 27.0206C20.8673 26.6644 20.8673 26.3973 20.9548 26.1301C21.0424 25.863 21.0424 25.6849 21.1299 25.5069C21.2175 25.3288 21.305 25.2397 21.3925 25.1507C21.48 25.0616 21.5676 24.9726 21.5676 24.9726H21.6551C21.8302 24.8836 22.0928 24.9726 22.2678 25.1507C22.5304 25.3288 22.793 25.5959 22.9681 25.863C23.1432 26.1301 23.4058 26.3973 23.7559 26.7534C24.106 27.1096 24.3686 27.3767 24.5437 27.4658L24.8063 27.6438C24.9813 27.7329 25.1564 27.8219 25.419 27.911C25.6816 28 25.8567 28 26.0317 28L29.0079 27.911C29.2705 27.911 29.533 27.8219 29.7081 27.7329C29.8832 27.6438 29.9707 27.5548 29.9707 27.3767C29.9707 27.2877 29.9707 27.1096 29.9707 27.0206C29.7956 26.8425 29.7957 26.7534 29.7957 26.6644Z" fill="white"/>
</svg>
