<svg width="80" height="80" viewBox="0 0 80 80" fill="none" xmlns="http://www.w3.org/2000/svg">
<path d="M24.8757 29.3586C23.8442 27.5737 23.36 25.6956 23.36 23.6203V6.84945C27.1448 5.85676 34.1853 3.73098 40.0001 0C45.8148 3.73098 52.8553 5.85676 56.6401 6.84945V23.6204C56.6401 25.6957 56.1558 27.5739 55.1243 29.3588C52.2983 34.249 45.2578 38.0987 40.0001 41.3655C34.7421 38.0987 27.7018 34.2487 24.8757 29.3586ZM26.261 23.6241C26.261 25.1894 26.6127 26.5279 27.3677 27.8365C29.5248 31.568 35.4863 35.1725 39.4317 37.5566C39.6076 37.662 39.8026 37.7159 40.0001 37.7159C40.1975 37.7159 40.3917 37.662 40.5676 37.5566C44.5138 35.1725 50.4753 31.568 52.6316 27.8365C53.3875 26.5279 53.7391 25.1893 53.7391 23.6241V10.0005C53.739 9.75167 53.6605 9.50961 53.5154 9.31047C53.3702 9.11132 53.1663 8.9658 52.934 8.89565C48.2226 7.47692 44.0527 5.75383 40.5391 3.77406C40.3742 3.68086 40.189 3.63199 40.0008 3.63199C39.8126 3.63199 39.6274 3.68086 39.4625 3.77406C35.9473 5.75383 31.7773 7.47692 27.0653 8.89565C26.8332 8.96595 26.6294 9.11153 26.4845 9.31066C26.3395 9.50979 26.2611 9.75178 26.261 10.0005V23.6241ZM29.2941 26.6611C28.7458 25.7109 28.5005 24.7747 28.5005 23.6241V10.8573C32.8061 9.51391 36.6668 7.91217 40.0001 6.09075C43.3326 7.91217 47.1954 9.51391 51.4988 10.8573V23.6241C51.4988 24.7747 51.2543 25.7109 50.706 26.6611C48.9407 29.7164 43.5554 33.0755 40.0001 35.2281C36.4463 33.0755 31.0594 29.7166 29.2941 26.6611ZM31.9613 20.423L37.476 26.6795C37.722 27.1171 38.1143 27.3866 38.6018 27.4525C39.0893 27.5185 39.5362 27.3626 39.8839 27.0053L47.7708 16.8445C48.4282 16.1688 48.4282 15.063 47.7708 14.3874C47.1134 13.7117 46.0375 13.7117 45.3799 14.3874L39.1985 22.7956L34.8896 18.6856C34.4247 17.8581 33.3855 17.5719 32.5802 18.0496C31.7749 18.5275 31.4964 19.5954 31.9613 20.423ZM16.3344 38.9678L12.4902 36.7698C12.3963 36.7159 12.3006 36.6892 12.2059 36.6892C12.0854 36.6892 11.9656 36.7335 11.8563 36.8221C6.15917 41.4403 2.97996 49.5941 4.29516 56.2103C4.33644 56.4202 4.44156 56.551 4.63276 56.6352L7.63293 57.9445C7.72413 50.3899 10.7321 43.833 16.3344 38.9678ZM62.3192 41.1674L60.5224 42.1944C57.3276 44.0206 53.7676 44.3518 50.2257 43.1514C47.1894 42.1237 43.998 42.7239 40.4665 44.9865L30.2413 51.5398C29.721 51.8726 29.6978 52.2153 29.6909 52.3276C29.6642 52.7383 29.914 53.2428 30.3146 53.5829C32.4948 55.4392 34.189 54.7257 37.2434 53.1925C39.1626 52.2284 41.3393 51.1361 43.8983 51.1211C46.689 51.1211 48.6922 52.2472 51.0287 53.636L60.832 59.452C60.8681 59.4742 60.9035 59.4972 60.9369 59.5219C61.579 59.9974 61.9836 60.4428 62.2625 60.8613L69.847 57.2553C69.6019 50.8171 67.0712 45.4097 62.3192 41.1674ZM41.8282 72.3381C41.3941 72.0796 40.8833 72.0123 40.3897 72.1486C39.8978 72.284 39.4887 72.6046 39.2389 73.0515L36.9745 77.0801C36.4551 78.0105 36.766 79.202 37.6695 79.7393C38.5757 80.2767 39.7377 79.9562 40.2613 79.0259L42.5215 74.9999C43.0452 74.0695 42.7345 72.8754 41.8282 72.3381ZM59.5233 61.6455L49.7769 55.8614C47.8887 54.739 46.1066 53.6828 43.9137 53.6917C41.9231 53.7042 40.1021 54.6186 38.3407 55.503C35.4826 56.938 32.2448 58.5632 28.7192 55.5631C27.6986 54.6948 27.1136 53.389 27.1946 52.1559C27.2696 51.0157 27.8811 50.0218 28.9173 49.3578L36.6516 44.4024C34.496 43.3948 32.5095 43.5719 30.1216 43.7843C26.8837 44.0729 23.2144 44.3996 18.463 41.6536L17.6587 41.1886C12.8757 45.4684 10.3512 50.9302 10.1477 57.4375L17.8014 61.4916C17.9298 61.5601 18.0458 61.6508 18.1443 61.7598L19.8373 63.6312L20.7179 62.0625C21.3045 61.0215 22.2528 60.2753 23.3899 59.9619C24.5279 59.6486 25.713 59.807 26.7259 60.409C27.7407 61.01 28.4668 61.9855 28.7725 63.154C28.7764 63.1725 28.781 63.1908 28.7863 63.2089C29.8871 62.8903 31.1093 63.0088 32.1767 63.6427C33.2456 64.2764 33.9562 65.3043 34.2388 66.4453C34.2568 66.4408 34.2749 66.4354 34.2922 66.4302C35.4292 66.1168 36.6135 66.2753 37.6292 66.8773C38.1377 67.1789 38.582 67.5824 38.936 68.0638C39.2899 68.5452 39.5461 69.0947 39.6895 69.6798C39.7076 69.6746 39.7249 69.6702 39.7429 69.6649C40.8817 69.3515 42.066 69.51 43.079 70.1118C45.179 71.3574 45.9017 74.1273 44.6897 76.2854L43.6535 78.1291L44.3839 78.5508C45.8266 79.4069 46.7553 78.965 47.1463 78.2683C47.5063 77.631 47.4582 76.6873 46.5055 76.1235L46.2359 75.9623C45.6374 75.6073 45.4314 74.8213 45.7777 74.206C45.9437 73.9109 46.217 73.6955 46.5375 73.6074C46.8579 73.5192 47.1993 73.5655 47.4866 73.7359L49.5522 74.9611C49.9502 75.1984 50.4187 75.2604 50.8692 75.1354C51.3198 75.0116 51.6943 74.7176 51.9252 74.3068C52.1561 73.8979 52.2147 73.4163 52.095 72.9532C51.9735 72.4885 51.6875 72.1034 51.2895 71.8671L49.8079 70.9881C49.2084 70.6331 49.005 69.8471 49.3505 69.2318C49.4325 69.0855 49.5417 68.9573 49.6719 68.8544C49.8022 68.7516 49.9509 68.6762 50.1095 68.6324C50.2681 68.5887 50.4336 68.5775 50.5964 68.5995C50.7593 68.6216 50.9163 68.6764 51.0585 68.7608L53.5031 70.2118C54.4257 70.7589 55.61 70.4331 56.1423 69.485C56.6716 68.5439 56.3614 67.3388 55.4555 66.7852L53.995 65.9184C53.3963 65.5634 53.1921 64.7775 53.5367 64.1621C53.7028 63.867 53.9761 63.6517 54.2965 63.5635C54.617 63.4754 54.9584 63.5217 55.2457 63.6922L57.6489 65.1173C58.0926 65.3812 58.6128 65.4493 59.114 65.3122C59.6145 65.1741 60.0313 64.8475 60.2864 64.3907C60.5275 63.9622 60.6016 63.4373 60.4888 62.9425C60.2907 62.4167 60.1616 62.1261 59.5233 61.6455ZM68.1446 36.8221C67.9517 36.6654 67.7269 36.6468 67.5097 36.7698L63.6664 38.9669C69.2721 43.8392 72.2782 50.3978 72.3653 57.9445L75.368 56.6352C75.5574 56.551 75.6608 56.4202 75.7038 56.2103C77.0218 49.5942 73.8418 41.4395 68.1446 36.8221ZM30.926 65.869C30.0432 65.3462 28.8957 65.6447 28.3624 66.5366L24.669 73.1093C24.1479 74.0396 24.4579 75.2347 25.364 75.7719C26.2703 76.3083 27.4322 75.9888 27.9533 75.0576C28.5419 74.0099 31.621 68.5661 31.621 68.5292C32.1429 67.5988 31.832 66.4062 30.926 65.869ZM26.3546 63.8196C26.2237 63.3142 25.9111 62.8937 25.4752 62.6352C25.0411 62.3767 24.5295 62.3095 24.0384 62.4458C23.5448 62.5813 23.1357 62.9016 22.8859 63.3487L20.6232 67.3747C20.3717 67.8226 20.3053 68.3466 20.4379 68.8521C20.5698 69.3576 20.8824 69.778 21.3165 70.0365C22.2079 70.5651 23.3469 70.2636 23.8815 69.3679L26.1703 65.2952C26.42 64.8482 26.4863 64.3241 26.3546 63.8196ZM36.3775 69.1035C35.4844 68.5739 34.3436 68.8777 33.8095 69.7774L30.7343 75.2528C30.2508 76.1756 30.5664 77.3368 31.4565 77.8646C31.8906 78.1223 32.3997 78.1896 32.8933 78.0541C33.386 77.9187 33.796 77.5981 34.0458 77.1512C35.0536 75.3554 36.0628 73.5603 37.0709 71.7647C37.5929 70.8343 37.282 69.6409 36.3775 69.1035Z" fill="#5184C4"/>
<path d="M7.09842 19.4673C7.12209 19.5619 7.17206 19.6474 7.24223 19.7133L10.0362 22.4065L9.31616 26.2733C9.27872 26.4733 9.35264 26.6652 9.51296 26.7849C9.67328 26.9046 9.8736 26.9174 10.0472 26.8193L13.403 24.9205L16.7589 26.8193C16.8416 26.8675 16.9361 26.8899 17.031 26.8838C17.1259 26.8777 17.217 26.8433 17.2931 26.7849C17.3708 26.7285 17.4307 26.6501 17.4657 26.5592C17.5007 26.4684 17.5092 26.369 17.4901 26.2733L16.7699 22.4065L19.5642 19.7133C19.6343 19.6474 19.6843 19.5619 19.708 19.4673C19.7316 19.3727 19.728 19.273 19.6975 19.1805C19.6693 19.0872 19.6153 19.0044 19.542 18.9421C19.4688 18.8799 19.3794 18.8409 19.285 18.83L15.484 18.339L13.8551 14.7755C13.7709 14.5914 13.6013 14.4807 13.4032 14.4807C13.2051 14.4807 13.0355 14.5914 12.9514 14.7755L11.3224 18.339L7.52143 18.83C7.42697 18.8409 7.33766 18.8799 7.26441 18.9421C7.19116 19.0044 7.13714 19.0872 7.10895 19.1805C7.07841 19.273 7.07475 19.3727 7.09842 19.4673Z" fill="#C4AA6C"/>
<path d="M62.5102 26.2733L63.2302 22.4065L60.4365 19.7133C60.3663 19.6474 60.3163 19.5619 60.2927 19.4673C60.269 19.3727 60.2727 19.273 60.3032 19.1805C60.3314 19.0872 60.3854 19.0044 60.4586 18.9421C60.5319 18.8799 60.6212 18.8409 60.7157 18.83L64.5166 18.339L66.1456 14.7755C66.2298 14.5914 66.3994 14.4807 66.5974 14.4807C66.7955 14.4807 66.9651 14.5914 67.0493 14.7755L68.6782 18.339L72.4792 18.83C72.5737 18.8409 72.663 18.8799 72.7362 18.9421C72.8095 19.0044 72.8635 19.0872 72.8917 19.1805C72.9222 19.273 72.9259 19.3727 72.9022 19.4673C72.8786 19.5619 72.8286 19.6474 72.7584 19.7133L69.9642 22.4065L70.6843 26.2733C70.7034 26.369 70.6949 26.4684 70.6599 26.5592C70.625 26.6501 70.565 26.7285 70.4874 26.7849C70.4112 26.8433 70.3201 26.8777 70.2252 26.8838C70.1304 26.8899 70.0358 26.8675 69.9531 26.8193L66.5973 24.9205L63.2414 26.8193C63.1588 26.8675 63.0642 26.8899 62.9693 26.8838C62.8745 26.8777 62.7834 26.8433 62.7072 26.7849C62.6296 26.7285 62.5696 26.6501 62.5346 26.5592C62.4997 26.4684 62.4912 26.369 62.5102 26.2733Z" fill="#C4AA6C"/>
</svg>
